<?xml version="1.0" encoding="UTF-8" standalone="no"?>
<svg
   xmlns:dc="http://purl.org/dc/elements/1.1/"
   xmlns:cc="http://creativecommons.org/ns#"
   xmlns:rdf="http://www.w3.org/1999/02/22-rdf-syntax-ns#"
   xmlns:svg="http://www.w3.org/2000/svg"
   xmlns="http://www.w3.org/2000/svg"
   xmlns:sodipodi="http://sodipodi.sourceforge.net/DTD/sodipodi-0.dtd"
   xmlns:inkscape="http://www.inkscape.org/namespaces/inkscape"
   width="34.785221mm"
   height="26.368616mm"
   viewBox="0 0 34.785221 26.368616"
   version="1.1"
   id="svg982"
   inkscape:version="1.0.1 (3bc2e813f5, 2020-09-07)"
   sodipodi:docname="cloud shaper cm.svg">
  <defs
     id="defs976" />
  <sodipodi:namedview
     id="base"
     pagecolor="#ffffff"
     bordercolor="#666666"
     borderopacity="1.0"
     inkscape:pageopacity="0.0"
     inkscape:pageshadow="2"
     inkscape:zoom="3.959798"
     inkscape:cx="67.56664"
     inkscape:cy="36.177076"
     inkscape:document-units="mm"
     inkscape:current-layer="layer1"
     inkscape:document-rotation="0"
     showgrid="false"
     inkscape:window-width="1920"
     inkscape:window-height="1017"
     inkscape:window-x="-8"
     inkscape:window-y="-8"
     inkscape:window-maximized="1"
     fit-margin-top="0"
     fit-margin-left="0"
     fit-margin-right="0"
     fit-margin-bottom="0" />
  <metadata
     id="metadata979">
    <rdf:RDF>
      <cc:Work
         rdf:about="">
        <dc:format>image/svg+xml</dc:format>
        <dc:type
           rdf:resource="http://purl.org/dc/dcmitype/StillImage" />
        <dc:title />
      </cc:Work>
    </rdf:RDF>
  </metadata>
  <g
     inkscape:label="Layer 1"
     inkscape:groupmode="layer"
     id="layer1"
     transform="translate(-85.416919,-200.75022)">
    <g
       id="g958"
       transform="translate(-192.25698,79.547382)">
      <path
         style="fill:#ffffff;stroke:none;stroke-width:1.32292;stroke-linecap:butt;stroke-linejoin:miter;stroke-miterlimit:4;stroke-dasharray:none;stroke-opacity:1"
         d="m 307.47054,144.69272 c -2.77143,2.49785 -8.08133,1.40035 -10.04007,-1.60667 -2.2515,4.28463 -8.22728,4.86429 -11.37116,2.22104 -10.47046,0.576 -8.98405,-12.00765 -0.32459,-12.64631 -1.08411,-1.46653 -1.2534,-4.38292 -0.37775,-6.56302 1.35833,-3.38183 7.00981,-6.83626 13.00268,-1.40317 2.38538,-1.33578 5.3661,-1.78955 7.34322,0.79513 1.65314,2.16115 1.22707,6.44368 -1.71458,9.339 6.04989,1.68913 6.40374,7.23088 3.48225,9.864 z"
         id="path941"
         sodipodi:nodetypes="scccscscs" />
      <path
         style="fill:none;stroke:#bbf3fc;stroke-width:1.32292;stroke-linecap:butt;stroke-linejoin:miter;stroke-miterlimit:4;stroke-dasharray:none;stroke-opacity:1"
         d="m 285.65043,132.53592 c -8.57517,0.76352 -10.06158,13.34717 0.36954,12.73749"
         id="path927"
         sodipodi:nodetypes="cc" />
      <path
         style="color:#000000;font-style:normal;font-variant:normal;font-weight:normal;font-stretch:normal;font-size:medium;line-height:normal;font-family:sans-serif;font-variant-ligatures:normal;font-variant-position:normal;font-variant-caps:normal;font-variant-numeric:normal;font-variant-alternates:normal;font-variant-east-asian:normal;font-feature-settings:normal;font-variation-settings:normal;text-indent:0;text-align:start;text-decoration:none;text-decoration-line:none;text-decoration-style:solid;text-decoration-color:#000000;letter-spacing:normal;word-spacing:normal;text-transform:none;writing-mode:lr-tb;direction:ltr;text-orientation:mixed;dominant-baseline:auto;baseline-shift:baseline;text-anchor:start;white-space:normal;shape-padding:0;shape-margin:0;inline-size:0;clip-rule:nonzero;display:inline;overflow:visible;visibility:visible;opacity:1;isolation:auto;mix-blend-mode:normal;color-interpolation:sRGB;color-interpolation-filters:linearRGB;solid-color:#000000;solid-opacity:1;vector-effect:none;fill:#bbf3fc;fill-opacity:1;fill-rule:nonzero;stroke:none;stroke-width:1.32292;stroke-linecap:butt;stroke-linejoin:miter;stroke-miterlimit:4;stroke-dasharray:none;stroke-dashoffset:0;stroke-opacity:1;color-rendering:auto;image-rendering:auto;shape-rendering:auto;text-rendering:auto;enable-background:accumulate;stop-color:#000000;stop-opacity:1"
         d="m 291.9707,121.20312 c -0.70495,-0.006 -1.38096,0.0823 -2.01758,0.24805 -2.54647,0.66311 -4.44059,2.48734 -5.20898,4.40039 -0.66207,1.64836 -0.7765,3.60215 -0.36914,5.27539 0.40736,1.67324 1.41657,3.17016 3.07617,3.43555 1.58033,0.25271 2.99432,-0.75256 3.5586,-2.11328 0.56427,-1.36072 -0.14294,-3.78156 -2.38086,-3.71813 1.06756,0.42724 1.81723,1.37978 1.16015,3.21032 -0.35379,0.85315 -1.22317,1.45929 -2.1289,1.31445 -0.97062,-0.15522 -1.66466,-1.06399 -2,-2.44141 -0.33534,-1.37741 -0.23182,-3.12039 0.31054,-4.4707 0.58995,-1.46878 2.19934,-3.06199 4.31641,-3.61328 2.11707,-0.55129 4.76081,-0.14512 7.62891,2.45508 l 0.35156,0.31836 0.41601,-0.23243 c 1.11807,-0.6261 2.35579,-1.0254 3.47852,-0.98828 1.12273,0.0371 2.13587,0.45733 3.01562,1.60742 0.86298,1.12817 1.10254,3.13977 0.43555,5.14454 -0.98169,2.83278 -2.3643,4.50235 -4.88322,5.95774 3.39753,-0.4364 5.36221,-3.20474 6.13908,-5.53978 0.77687,-2.33503 0.5888,-4.758 -0.64062,-6.36523 -1.09737,-1.43458 -2.56324,-2.07874 -4.02149,-2.12695 -1.31017,-0.0433 -2.59233,0.38505 -3.76172,0.98047 -2.22601,-1.8944 -4.46785,-2.7218 -6.47461,-2.73829 z"
         id="path945"
         sodipodi:nodetypes="ccssssccsssscccssccssscc" />
      <path
         style="fill:#fcfbbb;fill-opacity:1;stroke:none;stroke-width:0.264583px;stroke-linecap:butt;stroke-linejoin:miter;stroke-opacity:1"
         d="m 307.38101,126.26596 c 0.51496,-0.18391 4.98011,-0.62077 5.07595,1.16646 0.15049,2.80654 -7.60638,4.61585 -11.86596,1.97198 2.65373,0.39157 8.89899,-0.26361 8.95287,-1.63938 0.0353,-0.9016 -0.94914,-1.4377 -2.16286,-1.49906 z"
         id="path923"
         sodipodi:nodetypes="cscsc" />
      <path
         style="fill:#fcfbbb;fill-opacity:1;stroke:none;stroke-width:0.264583px;stroke-linecap:butt;stroke-linejoin:miter;stroke-opacity:1"
         d="m 282.05955,132.50555 c -1.93845,-0.23916 -4.73444,1.28473 -4.34982,3.20389 0.85612,4.27181 15.20551,4.97466 19.15322,3.08696 -5.65505,-0.11839 -15.36298,-2.38586 -15.97271,-4.23288 -0.3049,-0.92361 0.52107,-1.76841 1.16931,-2.05797 z"
         id="path925"
         sodipodi:nodetypes="cscsc" />
      <path
         style="color:#000000;font-style:normal;font-variant:normal;font-weight:normal;font-stretch:normal;font-size:medium;line-height:normal;font-family:sans-serif;font-variant-ligatures:normal;font-variant-position:normal;font-variant-caps:normal;font-variant-numeric:normal;font-variant-alternates:normal;font-variant-east-asian:normal;font-feature-settings:normal;font-variation-settings:normal;text-indent:0;text-align:start;text-decoration:none;text-decoration-line:none;text-decoration-style:solid;text-decoration-color:#000000;letter-spacing:normal;word-spacing:normal;text-transform:none;writing-mode:lr-tb;direction:ltr;text-orientation:mixed;dominant-baseline:auto;baseline-shift:baseline;text-anchor:start;white-space:normal;shape-padding:0;shape-margin:0;inline-size:0;clip-rule:nonzero;display:inline;overflow:visible;visibility:visible;opacity:1;isolation:auto;mix-blend-mode:normal;color-interpolation:sRGB;color-interpolation-filters:linearRGB;solid-color:#000000;solid-opacity:1;vector-effect:none;fill:#bbf3fc;fill-opacity:1;fill-rule:nonzero;stroke:none;stroke-width:1.32292;stroke-linecap:butt;stroke-linejoin:miter;stroke-miterlimit:4;stroke-dasharray:none;stroke-dashoffset:0;stroke-opacity:1;color-rendering:auto;image-rendering:auto;shape-rendering:auto;text-rendering:auto;enable-background:accumulate;stop-color:#000000;stop-opacity:1"
         d="m 297.98273,138.7426 c -0.0206,2.12207 -0.1992,3.71977 -2.59119,5.88315 -1.00865,0.85131 -2.25588,1.35024 -3.54584,1.54024 -1.53783,0.22651 -3.12689,-0.0247 -4.38476,-0.69922 -2.52121,-1.41998 -3.03767,-2.90396 -3.37986,-4.04251 -0.32638,1.83377 1.21385,4.38212 2.75486,5.20852 1.541,0.8264 3.39897,1.10754 5.20312,0.8418 1.65217,-0.24335 3.26847,-0.9794 4.52836,-2.19857 1.89814,-1.99533 2.3956,-4.30942 1.41531,-6.53341 z"
         id="path949"
         sodipodi:nodetypes="ccsccsscc" />
      <path
         style="fill:none;stroke:#bbf3fc;stroke-width:1.32292;stroke-linecap:butt;stroke-linejoin:miter;stroke-miterlimit:4;stroke-dasharray:none;stroke-opacity:1"
         d="m 303.95693,134.85929 c 6.08125,1.65856 6.4351,7.20031 3.51361,9.83343 -2.77143,2.49785 -8.08133,1.40035 -10.05724,-1.57392"
         id="path931"
         sodipodi:nodetypes="csc" />
    </g>
  </g>
</svg>
