<?xml version="1.0" encoding="UTF-8" standalone="no"?>
<svg
   xmlns:dc="http://purl.org/dc/elements/1.1/"
   xmlns:cc="http://creativecommons.org/ns#"
   xmlns:rdf="http://www.w3.org/1999/02/22-rdf-syntax-ns#"
   xmlns:svg="http://www.w3.org/2000/svg"
   xmlns="http://www.w3.org/2000/svg"
   xmlns:sodipodi="http://sodipodi.sourceforge.net/DTD/sodipodi-0.dtd"
   xmlns:inkscape="http://www.inkscape.org/namespaces/inkscape"
   width="65.039764mm"
   height="69.334206mm"
   viewBox="0 0 65.039764 69.334206"
   version="1.1"
   id="svg1011"
   inkscape:version="1.0.1 (3bc2e813f5, 2020-09-07)"
   sodipodi:docname="lucky star cm 1.svg"
   inkscape:export-filename="D:\for others\lucky star cm.png"
   inkscape:export-xdpi="1562.1213"
   inkscape:export-ydpi="1562.1213">
  <defs
     id="defs1005"><inkscape:path-effect
   effect="mirror_symmetry"
   start_point="569.78685,45.109291"
   end_point="566.47819,49.223889"
   center_point="568.13252,47.16659"
   id="path-effect2193"
   is_visible="true"
   mode="free"
   discard_orig_path="false"
   fuse_paths="false"
   oposite_fuse="false" />
<inkscape:path-effect
   effect="mirror_symmetry"
   start_point="580.015,32.61864"
   end_point="564.50137,51.911196"
   center_point="572.25818,42.264918"
   id="path-effect2203"
   is_visible="true"
   mode="free"
   discard_orig_path="false"
   fuse_paths="false"
   oposite_fuse="false" />
<inkscape:path-effect
   effect="mirror_symmetry"
   start_point="538.01855,84.844918"
   end_point="535.43205,88.061466"
   center_point="536.7253,86.453192"
   id="path-effect2201"
   is_visible="true"
   mode="free"
   discard_orig_path="false"
   fuse_paths="false"
   oposite_fuse="false" />
<inkscape:path-effect
   effect="mirror_symmetry"
   start_point="538.01856,84.844919"
   end_point="532.98532,91.104197"
   center_point="535.50194,87.974558"
   id="path-effect2199"
   is_visible="true"
   mode="free"
   discard_orig_path="false"
   fuse_paths="false"
   oposite_fuse="false" />
<inkscape:path-effect
   effect="mirror_symmetry"
   start_point="536.97623,86.141147"
   end_point="530.39244,94.328667"
   center_point="533.68433,90.234907"
   id="path-effect2197"
   is_visible="true"
   mode="free"
   discard_orig_path="false"
   fuse_paths="false"
   oposite_fuse="false" />
<inkscape:path-effect
   effect="mirror_symmetry"
   start_point="572.27444,42.244714"
   end_point="560.70094,56.637384"
   center_point="566.48769,49.441049"
   id="path-effect2191"
   is_visible="true"
   mode="free"
   discard_orig_path="false"
   fuse_paths="false"
   oposite_fuse="false" />
<inkscape:path-effect
   effect="mirror_symmetry"
   start_point="562.54568,54.343287"
   end_point="540.63954,81.585495"
   center_point="551.59261,67.964391"
   id="path-effect2195"
   is_visible="true"
   mode="free"
   discard_orig_path="false"
   fuse_paths="false"
   oposite_fuse="false" />

Ĭ0/dkEsџY]..ܔ~ض,:o!~tпrX4[EQwqodщO_Mʙ|cG`@G<clipPath
   clipPathUnits="userSpaceOnUse"
   id="clipPath869">
  <path
     inkscape:export-ydpi="1562.1213"
     inkscape:export-xdpi="1562.1213"
     sodipodi:nodetypes="sssscsss"
     inkscape:connector-curvature="0"
     id="path871"
     d="m 560.26681,51.602516 c -6.21743,-2.874853 -11.44198,-2.140196 -18.33672,-1.375951 -7.70047,0.853555 -15.00124,0.295669 -17.48507,-5.920505 -1.74816,-4.375058 1.26852,-9.503322 5.43693,-8.660876 5.45446,1.102362 2.4344,8.026774 -0.5065,7.631887 2.12881,3.402083 5.90798,3.096389 11.52769,2.15152 6.61908,-1.112898 17.85943,-4.739642 22.40388,-0.608037 2.73325,2.484944 0.64731,8.48702 -3.04021,6.781962 z m 5.22121,4.198507 c 4.14221,5.455583 4.54592,10.716063 5.27918,17.614169 0.81894,7.704227 2.93066,14.715156 9.53505,15.807044 4.6483,0.768488 9.00965,-3.278489 7.29225,-7.168975 -2.24727,-5.090785 -8.3622,-0.655032 -7.34536,2.132594 -3.77968,-1.349078 -4.29217,-5.105799 -4.57537,-10.797344 -0.33357,-6.703695 0.79636,-18.46048 -4.21427,-22.012349 -3.01363,-2.136265 -8.42819,1.189189 -5.97148,4.424861 z"
     style="display:inline;fill:#ffd5d5;fill-opacity:1;stroke:none;stroke-width:0.264583px;stroke-linecap:butt;stroke-linejoin:miter;stroke-opacity:1" />
</clipPath>
</defs>
  <sodipodi:namedview
     id="base"
     pagecolor="#ffffff"
     bordercolor="#666666"
     borderopacity="1.0"
     inkscape:pageopacity="0.0"
     inkscape:pageshadow="2"
     inkscape:zoom="1.4"
     inkscape:cx="112.25751"
     inkscape:cy="117.32282"
     inkscape:document-units="mm"
     inkscape:current-layer="layer1"
     showgrid="false"
     fit-margin-top="0"
     fit-margin-left="0"
     fit-margin-right="0"
     fit-margin-bottom="0"
     inkscape:window-width="1920"
     inkscape:window-height="1017"
     inkscape:window-x="-8"
     inkscape:window-y="-8"
     inkscape:window-maximized="1"
     inkscape:document-rotation="0"
     inkscape:snap-global="false" />
  <metadata
     id="metadata1008">
    <rdf:RDF>
      <cc:Work
         rdf:about="">
        <dc:format>image/svg+xml</dc:format>
        <dc:type
           rdf:resource="http://purl.org/dc/dcmitype/StillImage" />
        <dc:title></dc:title>
      </cc:Work>
    </rdf:RDF>
  </metadata>
  <g
     inkscape:label="Layer 1"
     inkscape:groupmode="layer"
     id="layer1"
     transform="translate(58.97822,-114.16623)">
    <path
       inkscape:export-ydpi="1562.1213"
       inkscape:export-xdpi="1562.1213"
       transform="translate(-582.31198,82.24583)"
       sodipodi:nodetypes="cc"
       inkscape:connector-curvature="0"
       id="path2101"
       d="m 528.10453,47.517261 10.19728,36.975403 m 38.30231,2.024333 -38.30231,-2.02433"
       style="display:inline;fill:none;stroke:#ab822a;stroke-width:0.79375;stroke-linecap:butt;stroke-linejoin:miter;stroke-miterlimit:4;stroke-dasharray:none;stroke-opacity:1" />
    <path
       inkscape:export-ydpi="1562.1213"
       inkscape:export-xdpi="1562.1213"
       transform="translate(-582.31198,82.24583)"
       sodipodi:nodetypes="sssscsss"
       inkscape:connector-curvature="0"
       id="path2099"
       d="m 560.66369,51.337933 c -6.21743,-2.874853 -11.44198,-2.140196 -18.33672,-1.375951 -7.70047,0.853555 -15.00124,0.295669 -17.48507,-5.920505 -1.74816,-4.375058 1.26852,-9.503322 5.43693,-8.660876 5.45446,1.102362 2.4344,8.026774 -0.5065,7.631887 2.12881,3.402083 5.90798,3.096389 11.52769,2.15152 6.61908,-1.112898 17.85943,-4.739642 22.40388,-0.608037 2.73325,2.484944 0.64731,8.48702 -3.04021,6.781962 z m 5.22121,4.198507 c 4.14221,5.455582 4.54592,10.716063 5.27918,17.614168 0.81894,7.704227 2.93066,14.715156 9.53505,15.807046 4.6483,0.768486 9.00965,-3.27849 7.29225,-7.168975 -2.24727,-5.090787 -8.3622,-0.655034 -7.34536,2.132593 -3.77968,-1.349079 -4.29217,-5.105798 -4.57537,-10.797345 -0.33357,-6.703693 0.79636,-18.460479 -4.21427,-22.012348 -3.01363,-2.136265 -8.42819,1.189189 -5.97148,4.424861 z"
       style="display:inline;fill:#d1c14e;fill-opacity:1;stroke:none;stroke-width:0.264583px;stroke-linecap:butt;stroke-linejoin:miter;stroke-opacity:1" />
    <path
       inkscape:export-ydpi="1562.1213"
       inkscape:export-xdpi="1562.1213"
       inkscape:connector-curvature="0"
       id="path2118"
       d="m -45.874058,169.05643 30.01119,-37.32155"
       style="display:inline;fill:none;stroke:#ab822a;stroke-width:1.5875;stroke-linecap:butt;stroke-linejoin:miter;stroke-miterlimit:4;stroke-dasharray:none;stroke-opacity:1" />
    <path
       inkscape:export-ydpi="1562.1213"
       inkscape:export-xdpi="1562.1213"
       sodipodi:nodetypes="ccccccccccccccc"
       inkscape:connector-curvature="0"
       id="path2120"
       d="m -22.272907,138.44114 -3.12675,3.88629 0.505658,1.90668 3.180892,-3.95719 z m -9.378902,11.66212 -5.521449,6.86517 0.65231,1.72467 5.321291,-6.61842 z m -7.566409,9.41015 -1.2136,1.50845 0.44016,1.9857 1.27291,-1.58341 z"
       style="color:#000000;font-style:normal;font-variant:normal;font-weight:normal;font-stretch:normal;font-size:medium;line-height:normal;font-family:sans-serif;font-variant-ligatures:normal;font-variant-position:normal;font-variant-caps:normal;font-variant-numeric:normal;font-variant-alternates:normal;font-feature-settings:normal;text-indent:0;text-align:start;text-decoration:none;text-decoration-line:none;text-decoration-style:solid;text-decoration-color:#000000;letter-spacing:normal;word-spacing:normal;text-transform:none;writing-mode:lr-tb;direction:ltr;text-orientation:mixed;dominant-baseline:auto;baseline-shift:baseline;text-anchor:start;white-space:normal;shape-padding:0;clip-rule:nonzero;display:inline;overflow:visible;visibility:visible;isolation:auto;mix-blend-mode:normal;color-interpolation:sRGB;color-interpolation-filters:linearRGB;solid-color:#000000;solid-opacity:1;vector-effect:none;fill:#d1c14e;fill-opacity:1;fill-rule:nonzero;stroke:none;stroke-width:1.5875;stroke-linecap:butt;stroke-linejoin:miter;stroke-miterlimit:4;stroke-dasharray:none;stroke-dashoffset:0;stroke-opacity:1;color-rendering:auto;image-rendering:auto;shape-rendering:auto;text-rendering:auto;enable-background:accumulate" />
    <path
       inkscape:export-ydpi="1562.1213"
       inkscape:export-xdpi="1562.1213"
       transform="translate(-582.31198,82.24583)"
       sodipodi:nodetypes="cccc"
       inkscape:connector-curvature="0"
       id="path2122"
       d="m 538.01856,84.844915 -4.582,0.09008 -10.1028,9.541523 7.09774,-0.196445 m 7.58706,-9.43516 0.89537,4.494569 -7.15103,11.915118 -1.33139,-6.974517"
       style="display:inline;fill:#8bb3de;fill-opacity:1;stroke:none;stroke-width:0.264583px;stroke-linecap:butt;stroke-linejoin:miter;stroke-opacity:1" />
    <path
       inkscape:export-ydpi="1562.1213"
       inkscape:export-xdpi="1562.1213"
       transform="translate(-582.31198,82.24583)"
       style="display:inline;fill:#ccdfea;fill-opacity:1;stroke:none;stroke-width:0.264583px;stroke-linecap:butt;stroke-linejoin:miter;stroke-opacity:1"
       d="m 538.01856,84.844915 -4.582,0.09008 -3.33458,3.14932 -3.40581,3.216596 6.27607,-0.180448 m 5.04632,-6.275545 0.89537,4.494569 -2.36029,3.932764 -2.41072,4.016772 -1.17068,-6.16856"
       id="path2126"
       inkscape:connector-curvature="0"
       sodipodi:nodetypes="ccccc" />
    <path
       inkscape:export-ydpi="1562.1213"
       inkscape:export-xdpi="1562.1213"
       transform="translate(-582.31198,82.24583)"
       style="display:inline;fill:#798fc3;fill-opacity:1;stroke:none;stroke-width:0.264583px;stroke-linecap:butt;stroke-linejoin:miter;stroke-opacity:1"
       d="m 538.01856,84.844915 -4.582,0.09008 -3.40353,3.214441 5.39601,-0.08423 m 2.58951,-3.220298 0.89538,4.494567 -2.4091,4.014088 -1.07579,-5.288354"
       id="path2124"
       inkscape:connector-curvature="0"
       sodipodi:nodetypes="cccc" />
    <path
       inkscape:export-ydpi="1562.1213"
       inkscape:export-xdpi="1562.1213"
       transform="translate(-582.31198,82.24583)"
       sodipodi:nodetypes="ccccccccccccc"
       inkscape:connector-curvature="0"
       id="path2177"
       d="m 570.70492,47.683092 3.7607,5.782198 0.7559,-8.546513 8.02657,-0.839768 -7.7453,-2.238961 4.51221,-9.221415 -8.03818,6.386093 -3.84902,-7.084321 0.90239,8.019764 -8.18515,2.572469 6.45456,2.432153 -2.79823,6.966403 z"
       style="display:inline;fill:#ccdfea;fill-opacity:1;stroke:none;stroke-width:0.264583px;stroke-linecap:butt;stroke-linejoin:miter;stroke-opacity:1" />
    <path
       inkscape:export-ydpi="1562.1213"
       inkscape:export-xdpi="1562.1213"
       sodipodi:nodetypes="ccccc"
       inkscape:connector-curvature="0"
       id="path2179"
       d="m -21.466928,124.75847 10.863501,0.43583 -7.207171,8.96273 2.798231,-6.96641 z"
       style="display:inline;fill:#8bb3de;fill-opacity:1;stroke:none;stroke-width:0.264583px;stroke-linecap:butt;stroke-linejoin:miter;stroke-opacity:1" />
    <path
       inkscape:export-ydpi="1562.1213"
       inkscape:export-xdpi="1562.1213"
       inkscape:connector-curvature="0"
       id="path2181"
       d="m -10.603427,125.1943 8.3064564,-10.32983 -8.0381774,6.38609 -3.84902,-7.08433 z"
       style="display:inline;fill:#798fc3;fill-opacity:1;stroke:none;stroke-width:0.264583px;stroke-linecap:butt;stroke-linejoin:miter;stroke-opacity:1" />
    <path
       inkscape:export-ydpi="1562.1213"
       inkscape:export-xdpi="1562.1213"
       clip-path="url(#clipPath869)"
       transform="translate(-581.9151,81.981247)"
       sodipodi:nodetypes="cccsccccscsccccccc"
       inkscape:connector-curvature="0"
       id="path2183"
       d="m 529.1875,37.662109 c -0.4398,0.06422 -0.87819,0.242949 -1.26367,0.517579 -0.77098,0.549258 -1.32521,1.529406 -1.17969,2.779296 0.0787,0.675716 0.39896,1.195563 0.81836,1.554688 0.4194,0.359125 0.92863,0.568635 1.41406,0.697266 0.97086,0.25726 1.88672,0.193359 1.88672,0.193359 l 0.2942,-0.671849 c 0,0 -1.16883,0.06153 -2.01293,-0.162136 -0.42205,-0.111835 -0.83909,-0.290366 -1.15234,-0.558593 -0.31325,-0.268227 -0.53169,-0.614571 -0.5918,-1.13086 -0.11944,-1.02585 0.30795,-1.737817 0.90625,-2.164062 0.5983,-0.426245 1.3702,-0.521609 1.87305,-0.289063 0.53325,0.246606 0.86427,0.917265 0.77929,1.498047 -0.15868,0.99464 -0.94281,1.424576 -1.67093,1.521615 0.94898,0.400546 2.19669,-0.547171 2.32526,-1.425912 0.12858,-0.878741 -0.32415,-1.808553 -1.15625,-2.193359 -0.38917,-0.179973 -0.82973,-0.230239 -1.26953,-0.166016 z m 56.586,45.502337 c 0.0317,0.443335 -0.0488,0.909868 -0.23433,1.345304 -0.371,0.870892 -1.20937,1.622557 -2.46136,1.748665 -0.67687,0.06815 -1.25333,-0.133086 -1.69409,-0.465642 -0.44077,-0.332557 -0.75468,-0.784959 -0.98449,-1.231473 -0.45963,-0.893029 -0.59377,-1.801263 -0.59377,-1.801263 l 0.59306,-0.43153 c 0,0 0.19075,1.154801 0.59035,1.931233 0.19981,0.388215 0.46368,0.757224 0.79288,1.005611 0.32921,0.248388 0.71436,0.38741 1.23152,0.335319 1.02758,-0.1035 1.63124,-0.673726 1.91915,-1.349562 0.28791,-0.675835 0.2154,-1.450216 -0.11965,-1.891443 -0.3553,-0.467902 -1.08137,-0.64728 -1.63038,-0.439639 -0.93741,0.368442 -1.18905,1.22657 -1.12757,1.95855 -0.59487,-0.840908 0.063,-2.262935 0.89367,-2.577095 0.83067,-0.31417 1.83598,-0.07153 2.3904,0.658595 0.2593,0.341479 0.40294,0.760986 0.4346,1.204321 z"
       style="fill:#ab822a;fill-opacity:1" />
    <path
       style="fill:#798fc3;fill-opacity:1;stroke:none;stroke-width:0.264583px;stroke-linecap:butt;stroke-linejoin:miter;stroke-opacity:1"
       d="m -10.603428,125.1943 2.7570663,10.51682 -3.7607003,-5.7822 -6.203548,4.2281 z"
       id="path863" />
    <path
       style="fill:#8bb3de;fill-opacity:1;stroke:none;stroke-width:0.264583px;stroke-linecap:butt;stroke-linejoin:miter;stroke-opacity:1"
       d="m -2.2969804,114.86446 -8.3064476,10.32984 11.53953687,1.13054 -7.74529867,-2.23896 z"
       id="path865" />
  </g>
</svg>
