<?xml version="1.0" encoding="UTF-8" standalone="no"?>
<!-- Created with Inkscape (http://www.inkscape.org/) -->

<svg
   xmlns:dc="http://purl.org/dc/elements/1.1/"
   xmlns:cc="http://creativecommons.org/ns#"
   xmlns:rdf="http://www.w3.org/1999/02/22-rdf-syntax-ns#"
   xmlns:svg="http://www.w3.org/2000/svg"
   xmlns="http://www.w3.org/2000/svg"
   xmlns:sodipodi="http://sodipodi.sourceforge.net/DTD/sodipodi-0.dtd"
   xmlns:inkscape="http://www.inkscape.org/namespaces/inkscape"
   width="19.334951mm"
   height="33.90353mm"
   viewBox="0 0 19.334951 33.90353"
   version="1.1"
   id="svg938"
   inkscape:version="0.92.4 (5da689c313, 2019-01-14)"
   sodipodi:docname="pansy flame cm.svg">
  <defs
     id="defs932" />
  <sodipodi:namedview
     id="base"
     pagecolor="#ffffff"
     bordercolor="#666666"
     borderopacity="1.0"
     inkscape:pageopacity="0.0"
     inkscape:pageshadow="2"
     inkscape:zoom="2.8"
     inkscape:cx="53.622184"
     inkscape:cy="72.077376"
     inkscape:document-units="mm"
     inkscape:current-layer="layer1"
     showgrid="false"
     fit-margin-top="0"
     fit-margin-left="0"
     fit-margin-right="0"
     fit-margin-bottom="0"
     inkscape:window-width="1366"
     inkscape:window-height="705"
     inkscape:window-x="-8"
     inkscape:window-y="-8"
     inkscape:window-maximized="1" />
  <metadata
     id="metadata935">
    <rdf:RDF>
      <cc:Work
         rdf:about="">
        <dc:format>image/svg+xml</dc:format>
        <dc:type
           rdf:resource="http://purl.org/dc/dcmitype/StillImage" />
        <dc:title></dc:title>
      </cc:Work>
    </rdf:RDF>
  </metadata>
  <g
     inkscape:label="Layer 1"
     inkscape:groupmode="layer"
     id="layer1"
     transform="translate(36.125809,-131.88157)">
    <g
       id="g1496">
      <path
         inkscape:export-ydpi="5254.7319"
         inkscape:export-xdpi="5254.7319"
         sodipodi:nodetypes="csssccccc"
         inkscape:connector-curvature="0"
         id="path854"
         d="m -34.965777,132.68163 c 8.31377,10.24887 0.939787,18.46237 1.935103,26.15971 0.451926,3.495 3.442888,6.19766 6.95203,6.52201 3.603739,0.33309 6.840395,-2.72614 8.170429,-6.09199 1.569437,-3.97168 0.286682,-10.92974 -1.182562,-13.11569 -0.284893,2.78768 -1.070028,4.84436 -2.114278,5.73364 0.420186,-4.00622 0.08057,-9.12068 -2.795146,-13.11569 0.05002,2.9233 0.003,4.57199 -1.075057,6.59368 -2.262965,-8.84186 -5.128461,-11.11671 -9.890519,-12.68567 z"
         style="display:inline;fill:#ff00ff;fill-opacity:1;stroke:#aa00d4;stroke-width:0.79374999;stroke-linecap:butt;stroke-linejoin:miter;stroke-miterlimit:4;stroke-dasharray:none;stroke-opacity:1" />
      <path
         inkscape:export-ydpi="5254.7319"
         inkscape:export-xdpi="5254.7319"
         sodipodi:nodetypes="csssccc"
         inkscape:connector-curvature="0"
         id="path856"
         d="m -29.180016,143.51744 c 0.498907,3.30854 -1.088851,8.16224 -1.454136,11.75336 -0.352441,3.46485 1.419305,6.4903 4.038746,6.38959 3.766106,-0.1448 4.35485,-3.35329 4.510401,-6.13212 0.155106,-2.77088 -1.469682,-7.04433 -2.28054,-8.00722 -0.174136,1.53204 -0.361254,3.05111 -1.064251,4.05429 0,0 -1.013573,-6.43618 -3.75022,-8.0579 z"
         style="display:inline;fill:#5555ff;fill-opacity:1;stroke:none;stroke-width:0.26458332px;stroke-linecap:butt;stroke-linejoin:miter;stroke-opacity:1" />
      <path
         inkscape:export-ydpi="5254.7319"
         inkscape:export-xdpi="5254.7319"
         sodipodi:nodetypes="csc"
         inkscape:connector-curvature="0"
         id="path858"
         d="m -27.942076,153.1077 c 2.36704,1.86767 2.922042,6.22759 1.254235,6.34284 -2.65902,0.18374 -0.802618,-4.03682 -1.254235,-6.34284 z"
         style="display:inline;fill:#80e5ff;fill-opacity:1;stroke:none;stroke-width:0.26458332px;stroke-linecap:butt;stroke-linejoin:miter;stroke-opacity:1" />
    </g>
  </g>
</svg>
